Pacifico-Bold.ufo
<glyph name="quotesingle" format="1">
  <advance width="300.869"/>
  <unicode hex="0027"/>
  <outline>
    <contour>
      <point x="185" y="399"/>
      <point x="190" y="385"/>
      <point x="212" y="383" type="curve" smooth="yes"/>
      <point x="231" y="381"/>
      <point x="243" y="391"/>
      <point x="251" y="412" type="curve" smooth="yes"/>
      <point x="271" y="463"/>
      <point x="302" y="554"/>
      <point x="318" y="596" type="curve" smooth="yes"/>
      <point x="327" y="621"/>
      <point x="310" y="635"/>
      <point x="291" y="639" type="curve" smooth="yes"/>
      <point x="254" y="647"/>
      <point x="230" y="637"/>
      <point x="225" y="612" type="curve" smooth="yes"/>
      <point x="213" y="553"/>
      <point x="195" y="453"/>
      <point x="189" y="421" type="curve" smooth="yes"/>
    </contour>
  </outline>
</glyph>
<glyph name="slash" format="1">
  <advance width="426"/>
  <unicode hex="002F"/>
  <outline>
    <contour>
      <point x="205" y="-9"/>
      <point x="222" y="28" type="curve" smooth="yes"/>
      <point x="454" y="539" type="line" smooth="yes"/>
      <point x="475" y="586"/>
      <point x="479" y="610"/>
      <point x="443" y="623" type="curve" smooth="yes"/>
      <point x="410" y="635"/>
      <point x="403" y="613"/>
      <point x="383" y="569" type="curve" smooth="yes"/>
      <point x="148" y="55" type="line" smooth="yes"/>
      <point x="129" y="14"/>
      <point x="133" y="-14"/>
      <point x="161" y="-24" type="curve" smooth="yes"/>
      <point x="187" y="-33"/>
    </contour>
  </outline>
</glyph>
<glyph name="nine" format="1">
  <advance width="417"/>
  <unicode hex="0039"/>
  <outline>
    <contour>
      <point x="242" y="398" type="curve" smooth="yes"/>
      <point x="121" y="414"/>
      <point x="37" y="332"/>
      <point x="37" y="214" type="curve" smooth="yes"/>
      <point x="34" y="62"/>
      <point x="202" y="33"/>
      <point x="279" y="91" type="curve"/>
      <point x="229" y="-5"/>
      <point x="146" y="-38"/>
      <point x="78" y="-70" type="curve" smooth="yes"/>
      <point x="10" y="-99"/>
      <point x="56" y="-166"/>
      <point x="121" y="-139" type="curve" smooth="yes"/>
      <point x="259" y="-82"/>
      <point x="384" y="17"/>
      <point x="389" y="208" type="curve" smooth="yes"/>
      <point x="392" y="336"/>
      <point x="328" y="388"/>
    </contour>
    <contour>
      <point x="238" y="318" type="curve" smooth="yes"/>
      <point x="284" y="312"/>
      <point x="293" y="263"/>
      <point x="292" y="226" type="curve" smooth="yes"/>
      <point x="290" y="166"/>
      <point x="265" y="134"/>
      <point x="197" y="138" type="curve" smooth="yes"/>
      <point x="107" y="143"/>
      <point x="105" y="336"/>
    </contour>
  </outline>
</glyph>
<glyph name="C" format="1">
  <advance width="603"/>
  <unicode hex="0043"/>
  <outline>
    <contour>
      <point x="55" y="184" type="curve" smooth="yes"/>
      <point x="57" y="38"/>
      <point x="133" y="-86"/>
      <point x="304" y="-95" type="curve" smooth="yes"/>
      <point x="456" y="-103"/>
      <point x="585" y="3"/>
      <point x="629" y="121" type="curve" smooth="yes"/>
      <point x="643" y="158"/>
      <point x="588" y="180"/>
      <point x="570" y="153" type="curve" smooth="yes"/>
      <point x="516" y="72"/>
      <point x="444" y="-9"/>
      <point x="326" y="-2" type="curve" smooth="yes"/>
      <point x="217" y="5"/>
      <point x="170" y="99"/>
      <point x="171" y="210" type="curve" smooth="yes"/>
      <point x="173" y="397"/>
      <point x="296" y="591"/>
      <point x="467" y="580" type="curve" smooth="yes"/>
      <point x="515" y="577"/>
      <point x="539" y="543"/>
      <point x="539" y="505" type="curve" smooth="yes"/>
      <point x="540" y="455"/>
      <point x="499" y="397"/>
      <point x="418" y="387" type="curve" smooth="yes"/>
      <point x="382" y="383"/>
      <point x="362" y="370"/>
      <point x="359" y="347" type="curve" smooth="yes"/>
      <point x="355" y="313"/>
      <point x="382" y="299"/>
      <point x="430" y="305" type="curve" smooth="yes"/>
      <point x="558" y="321"/>
      <point x="630" y="424"/>
      <point x="632" y="516" type="curve" smooth="yes"/>
      <point x="634" y="593"/>
      <point x="587" y="664"/>
      <point x="482" y="671" type="curve" smooth="yes"/>
      <point x="244" y="688"/>
      <point x="52" y="438"/>
    </contour>
    <contour>
      <point x="305" y="-70" type="move" name="bot"/>
    </contour>
  </outline>
</glyph>
<glyph name="G" format="1">
  <advance width="703"/>
  <unicode hex="0047"/>
  <outline>
    <contour>
      <point x="284" y="-311" type="curve" smooth="yes"/>
      <point x="501" y="-392"/>
      <point x="627" y="-257"/>
      <point x="691" y="117" type="curve" smooth="yes"/>
      <point x="708" y="204"/>
      <point x="676" y="227"/>
      <point x="556" y="227" type="curve" smooth="yes"/>
      <point x="523" y="227"/>
      <point x="487" y="215"/>
      <point x="487" y="178" type="curve" smooth="yes"/>
      <point x="487" y="142"/>
      <point x="514" y="134"/>
      <point x="553" y="134" type="curve" smooth="yes"/>
      <point x="586" y="134"/>
      <point x="595" y="133"/>
      <point x="590" y="108" type="curve" smooth="yes"/>
      <point x="584" y="77" type="line"/>
      <point x="342" y="-8"/>
      <point x="168" y="17"/>
      <point x="164" y="203" type="curve" smooth="yes"/>
      <point x="159" y="564"/>
      <point x="583" y="658"/>
      <point x="583" y="517" type="curve" smooth="yes"/>
      <point x="583" y="461"/>
      <point x="612" y="455"/>
      <point x="639" y="455" type="curve" smooth="yes"/>
      <point x="669" y="455"/>
      <point x="697" y="468"/>
      <point x="697" y="513" type="curve" smooth="yes"/>
      <point x="697" y="826"/>
      <point x="32" y="673"/>
      <point x="45" y="191" type="curve" smooth="yes"/>
      <point x="53" y="-158"/>
      <point x="529" y="-58"/>
      <point x="575" y="20" type="curve"/>
      <point x="504" y="-206"/>
      <point x="446" y="-239"/>
      <point x="311" y="-196" type="curve" smooth="yes"/>
      <point x="258" y="-179"/>
      <point x="198" y="-278"/>
    </contour>
    <contour>
      <point x="277" y="-321" type="move" name="bot"/>
    </contour>
  </outline>
</glyph>
<glyph name="J" format="1">
  <advance width="523"/>
  <unicode hex="004A"/>
  <outline>
    <contour>
      <point x="223" y="-222" type="curve" smooth="yes"/>
      <point x="394" y="-222"/>
      <point x="499" y="167"/>
      <point x="629" y="653" type="curve" smooth="yes"/>
      <point x="635" y="674"/>
      <point x="624" y="700"/>
      <point x="579" y="700" type="curve" smooth="yes"/>
      <point x="551" y="700"/>
      <point x="534" y="691"/>
      <point x="526" y="647" type="curve" smooth="yes"/>
      <point x="502" y="517"/>
      <point x="323" y="-114"/>
      <point x="215" y="-114" type="curve" smooth="yes"/>
      <point x="160" y="-114"/>
      <point x="144" y="-85"/>
      <point x="138" y="16" type="curve" smooth="yes"/>
      <point x="134" y="75"/>
      <point x="63" y="80"/>
      <point x="63" y="4" type="curve" smooth="yes"/>
      <point x="67" y="-147"/>
      <point x="109" y="-222"/>
    </contour>
    <contour>
      <point x="779" y="584" type="curve" smooth="yes"/>
      <point x="797" y="594"/>
      <point x="803" y="615"/>
      <point x="801" y="642" type="curve" smooth="yes"/>
      <point x="801" y="662"/>
      <point x="792" y="680"/>
      <point x="748" y="681" type="curve" smooth="yes"/>
      <point x="623" y="681"/>
      <point x="516" y="694"/>
      <point x="416" y="699" type="curve" smooth="yes"/>
      <point x="234" y="709"/>
      <point x="62" y="719"/>
      <point x="-4" y="503" type="curve" smooth="yes"/>
      <point x="-20" y="443"/>
      <point x="44" y="443"/>
      <point x="60" y="476" type="curve" smooth="yes"/>
      <point x="111" y="577"/>
      <point x="164" y="590"/>
      <point x="469" y="579" type="curve" smooth="yes"/>
      <point x="736" y="569"/>
      <point x="759" y="573"/>
    </contour>
  </outline>
</glyph>
<glyph name="K" format="1">
  <advance width="697"/>
  <unicode hex="004B"/>
  <outline>
    <contour>
      <point x="609" y="-151" type="curve" smooth="yes"/>
      <point x="614" y="-151"/>
      <point x="750" y="-146"/>
      <point x="744" y="-101" type="curve" smooth="yes"/>
      <point x="740" y="-69"/>
      <point x="735" y="-59"/>
      <point x="718" y="-56" type="curve" smooth="yes"/>
      <point x="696" y="-51"/>
      <point x="662" y="-65"/>
      <point x="621" y="-65" type="curve" smooth="yes"/>
      <point x="523" y="-62"/>
      <point x="443" y="73"/>
      <point x="411" y="285" type="curve"/>
      <point x="595" y="376"/>
      <point x="755" y="553"/>
      <point x="783" y="613" type="curve" smooth="yes"/>
      <point x="797" y="647"/>
      <point x="807" y="692"/>
      <point x="760" y="692" type="curve" smooth="yes"/>
      <point x="729" y="692"/>
      <point x="709" y="660"/>
      <point x="685" y="626" type="curve" smooth="yes"/>
      <point x="634" y="557"/>
      <point x="496" y="416"/>
      <point x="327" y="327" type="curve"/>
      <point x="341" y="432"/>
      <point x="348" y="593"/>
      <point x="348" y="661" type="curve" smooth="yes"/>
      <point x="348" y="691"/>
      <point x="323" y="707"/>
      <point x="297" y="702" type="curve" smooth="yes"/>
      <point x="-64" y="642"/>
      <point x="-67" y="433"/>
      <point x="-38" y="348" type="curve" smooth="yes"/>
      <point x="-31" y="314"/>
      <point x="-5" y="290"/>
      <point x="18" y="295" type="curve" smooth="yes"/>
      <point x="54" y="303"/>
      <point x="67" y="314"/>
      <point x="64" y="338" type="curve" smooth="yes"/>
      <point x="46" y="379"/>
      <point x="-19" y="550"/>
      <point x="237" y="615" type="curve"/>
      <point x="260" y="213"/>
      <point x="174" y="-42"/>
      <point x="-1" y="-42" type="curve" smooth="yes"/>
      <point x="-17" y="-42"/>
      <point x="-30" y="-35"/>
      <point x="-43" y="-34" type="curve" smooth="yes"/>
      <point x="-77" y="-32"/>
      <point x="-101" y="-62"/>
      <point x="-96" y="-103" type="curve" smooth="yes"/>
      <point x="-92" y="-139"/>
      <point x="-15" y="-141"/>
      <point x="19" y="-141" type="curve" smooth="yes"/>
      <point x="170" y="-141"/>
      <point x="265" y="5"/>
      <point x="320" y="286" type="curve"/>
      <point x="338" y="19"/>
      <point x="454" y="-151"/>
    </contour>
    <contour>
      <point x="280" y="-152" type="move" name="bot"/>
    </contour>
  </outline>
</glyph>
<glyph name="P" format="1">
  <advance width="579"/>
  <unicode hex="0050"/>
  <outline>
    <contour>
      <point x="238" y="-45" type="curve" smooth="yes"/>
      <point x="175" y="-45"/>
      <point x="170" y="103"/>
      <point x="170" y="205" type="curve" smooth="yes"/>
      <point x="170" y="383"/>
      <point x="218" y="602"/>
      <point x="392" y="625" type="curve" smooth="yes"/>
      <point x="521" y="642"/>
      <point x="601" y="589"/>
      <point x="601" y="495" type="curve" smooth="yes"/>
      <point x="601" y="410"/>
      <point x="529" y="337"/>
      <point x="412" y="319" type="curve"/>
      <point x="436" y="428"/>
      <point x="481" y="459"/>
      <point x="470" y="497" type="curve" smooth="yes"/>
      <point x="465" y="516"/>
      <point x="442" y="520"/>
      <point x="425" y="520" type="curve" smooth="yes"/>
      <point x="373" y="520"/>
      <point x="355" y="478"/>
      <point x="324" y="328" type="curve"/>
      <point x="313" y="331"/>
      <point x="280" y="344"/>
      <point x="254" y="358" type="curve" smooth="yes"/>
      <point x="235" y="368"/>
      <point x="227" y="348"/>
      <point x="227" y="328" type="curve" smooth="yes"/>
      <point x="227" y="278"/>
      <point x="261" y="274"/>
      <point x="312" y="254" type="curve"/>
      <point x="288" y="67"/>
      <point x="298" y="-45"/>
    </contour>
    <contour>
      <point x="226" y="-129" type="curve" smooth="yes"/>
      <point x="337" y="-129"/>
      <point x="369" y="-34"/>
      <point x="385" y="97" type="curve" smooth="yes"/>
      <point x="403" y="240" type="line"/>
      <point x="609" y="255"/>
      <point x="736" y="382"/>
      <point x="728" y="519" type="curve" smooth="yes"/>
      <point x="720" y="654"/>
      <point x="594" y="745"/>
      <point x="399" y="723" type="curve" smooth="yes"/>
      <point x="176" y="698"/>
      <point x="71" y="471"/>
      <point x="71" y="198" type="curve" smooth="yes"/>
      <point x="71" y="23"/>
      <point x="110" y="-129"/>
    </contour>
  </outline>
</glyph>
<glyph name="V" format="1">
  <advance width="562"/>
  <unicode hex="0056"/>
  <outline>
    <contour>
      <point x="474" y="289" type="curve" smooth="yes"/>
      <point x="423" y="191"/>
      <point x="312" y="40"/>
      <point x="247" y="27" type="curve" smooth="yes"/>
      <point x="217" y="19"/>
      <point x="191" y="51"/>
      <point x="191" y="143" type="curve" smooth="yes"/>
      <point x="191" y="347"/>
      <point x="294" y="531"/>
      <point x="302" y="539" type="curve" smooth="yes"/>
      <point x="314" y="557"/>
      <point x="259" y="616"/>
      <point x="209" y="544" type="curve" smooth="yes"/>
      <point x="188" y="513"/>
      <point x="94" y="337"/>
      <point x="94" y="148" type="curve" smooth="yes"/>
      <point x="94" y="18"/>
      <point x="142" y="-53"/>
      <point x="236" y="-51" type="curve"/>
      <point x="358" y="-45"/>
      <point x="481" y="106"/>
      <point x="562" y="258" type="curve" smooth="yes"/>
      <point x="713" y="540"/>
      <point x="670" y="706"/>
      <point x="542" y="709" type="curve" smooth="yes"/>
      <point x="275" y="715"/>
      <point x="416" y="205"/>
      <point x="788" y="492" type="curve" smooth="yes"/>
      <point x="819" y="517"/>
      <point x="792" y="568"/>
      <point x="753" y="540" type="curve" smooth="yes"/>
      <point x="489" y="352"/>
      <point x="422" y="642"/>
      <point x="526" y="634" type="curve" smooth="yes"/>
      <point x="581" y="630"/>
      <point x="597" y="542"/>
    </contour>
    <contour>
      <point x="30" y="370" type="curve" smooth="yes"/>
      <point x="259" y="514" type="line"/>
      <point x="288" y="530"/>
      <point x="267" y="587"/>
      <point x="228" y="565" type="curve" smooth="yes"/>
      <point x="1" y="427" type="line"/>
      <point x="-34" y="405"/>
      <point x="-15" y="343"/>
    </contour>
  </outline>
</glyph>
<glyph name="W" format="1">
  <advance width="982"/>
  <unicode hex="0057"/>
  <outline>
    <contour>
      <point x="608" y="-58" type="curve"/>
      <point x="735" y="-54"/>
      <point x="841" y="102"/>
      <point x="926" y="254" type="curve"/>
      <point x="1079" y="540"/>
      <point x="1038" y="722"/>
      <point x="916" y="722" type="curve" smooth="yes"/>
      <point x="632" y="722"/>
      <point x="767" y="227"/>
      <point x="1161" y="484" type="curve"/>
      <point x="1204" y="515"/>
      <point x="1165" y="580"/>
      <point x="1114" y="543" type="curve"/>
      <point x="840" y="357"/>
      <point x="823" y="650"/>
      <point x="909" y="650" type="curve" smooth="yes"/>
      <point x="947" y="650"/>
      <point x="958" y="540"/>
      <point x="839" y="297" type="curve"/>
      <point x="789" y="202"/>
      <point x="690" y="49"/>
      <point x="619" y="38" type="curve" smooth="yes"/>
      <point x="564" y="30"/>
      <point x="577" y="184"/>
      <point x="577" y="192" type="curve" smooth="yes"/>
      <point x="577" y="215"/>
      <point x="577" y="212"/>
      <point x="578" y="236" type="curve" smooth="yes"/>
      <point x="594" y="380"/>
      <point x="614" y="380"/>
      <point x="631" y="435" type="curve" smooth="yes"/>
      <point x="645" y="487"/>
      <point x="621" y="515"/>
      <point x="597" y="515" type="curve" smooth="yes"/>
      <point x="580" y="516"/>
      <point x="560" y="513"/>
      <point x="549" y="497" type="curve" smooth="yes"/>
      <point x="504" y="432"/>
      <point x="475" y="284"/>
      <point x="482" y="165" type="curve" smooth="yes"/>
      <point x="488" y="58"/>
      <point x="523" y="-60"/>
    </contour>
    <contour>
      <point x="221" y="-58" type="curve"/>
      <point x="346" y="-54"/>
      <point x="466" y="111"/>
      <point x="540" y="290" type="curve"/>
      <point x="508" y="398" type="line"/>
      <point x="490" y="354"/>
      <point x="485" y="350"/>
      <point x="464" y="308" type="curve" smooth="yes"/>
      <point x="382" y="127"/>
      <point x="285" y="44"/>
      <point x="231" y="38" type="curve" smooth="yes"/>
      <point x="205" y="35"/>
      <point x="183" y="59"/>
      <point x="183" y="145" type="curve" smooth="yes"/>
      <point x="183" y="344"/>
      <point x="286" y="523"/>
      <point x="295" y="532" type="curve" smooth="yes"/>
      <point x="316" y="562"/>
      <point x="248" y="636"/>
      <point x="188" y="550" type="curve" smooth="yes"/>
      <point x="167" y="520"/>
      <point x="74" y="344"/>
      <point x="74" y="152" type="curve" smooth="yes"/>
      <point x="74" y="18"/>
      <point x="121" y="-60"/>
    </contour>
    <contour>
      <point x="21" y="361" type="curve"/>
      <point x="250" y="503" type="line"/>
      <point x="289" y="527"/>
      <point x="259" y="605"/>
      <point x="209" y="573" type="curve" smooth="yes"/>
      <point x="-18" y="436" type="line"/>
      <point x="-63" y="410"/>
      <point x="-38" y="324"/>
    </contour>
  </outline>
</glyph>
<glyph name="Y" format="1">
  <advance width="589"/>
  <unicode hex="0059"/>
  <outline>
    <contour>
      <point x="250" y="-241" type="curve" smooth="yes"/>
      <point x="250" y="-165"/>
      <point x="521" y="91"/>
      <point x="716" y="228" type="curve" smooth="yes"/>
      <point x="739" y="244"/>
      <point x="714" y="301"/>
      <point x="683" y="280" type="curve" smooth="yes"/>
      <point x="551" y="191"/>
      <point x="168" y="-115"/>
      <point x="168" y="-274" type="curve" smooth="yes"/>
      <point x="168" y="-312"/>
      <point x="194" y="-345"/>
      <point x="240" y="-345" type="curve" smooth="yes"/>
      <point x="374" y="-345"/>
      <point x="430" y="-194"/>
      <point x="508" y="105" type="curve"/>
      <point x="620" y="537" type="line"/>
      <point x="630" y="581"/>
      <point x="629" y="609"/>
      <point x="577" y="609" type="curve" smooth="yes"/>
      <point x="555" y="609"/>
      <point x="539" y="592"/>
      <point x="531" y="560" type="curve" smooth="yes"/>
      <point x="442" y="210" type="line"/>
      <point x="295" y="24"/>
      <point x="36" y="8"/>
      <point x="275" y="589" type="curve" smooth="yes"/>
      <point x="286" y="615"/>
      <point x="257" y="620"/>
      <point x="239" y="620" type="curve" smooth="yes"/>
      <point x="208" y="620"/>
      <point x="197" y="601"/>
      <point x="189" y="588" type="curve" smooth="yes"/>
      <point x="-59" y="152"/>
      <point x="158" y="-122"/>
      <point x="420" y="102" type="curve"/>
      <point x="361" y="-133"/>
      <point x="282" y="-265"/>
      <point x="262" y="-265" type="curve" smooth="yes"/>
      <point x="254" y="-265"/>
      <point x="250" y="-259"/>
    </contour>
  </outline>
</glyph>
<glyph name="bracketright" format="1">
  <advance width="316"/>
  <unicode hex="005D"/>
  <outline>
    <contour>
      <point x="45" y="-71" type="curve" smooth="yes"/>
      <point x="154" y="-71" type="line"/>
      <point x="193" y="-71"/>
      <point x="217" y="-65"/>
      <point x="228" y="-4" type="curve" smooth="yes"/>
      <point x="251" y="133"/>
      <point x="255" y="231"/>
      <point x="282" y="416" type="curve" smooth="yes"/>
      <point x="271" y="350"/>
      <point x="294" y="515"/>
      <point x="294" y="513" type="curve"/>
      <point x="302" y="561"/>
      <point x="290" y="576"/>
      <point x="241" y="576" type="curve" smooth="yes"/>
      <point x="141" y="576" type="line"/>
      <point x="118" y="576"/>
      <point x="90" y="556"/>
      <point x="90" y="526" type="curve" smooth="yes"/>
      <point x="90" y="503"/>
      <point x="114" y="491"/>
      <point x="132" y="491" type="curve" smooth="yes"/>
      <point x="200" y="491" type="line"/>
      <point x="180" y="367"/>
      <point x="185" y="384"/>
      <point x="168" y="256" type="curve" smooth="yes"/>
      <point x="149" y="131"/>
      <point x="153" y="116"/>
      <point x="136" y="13" type="curve"/>
      <point x="49" y="13" type="line"/>
      <point x="26" y="13"/>
      <point x="3" y="-3"/>
      <point x="3" y="-28" type="curve" smooth="yes"/>
      <point x="3" y="-55"/>
      <point x="19" y="-71"/>
    </contour>
  </outline>
</glyph>
<glyph name="grave" format="1">
  <advance width="208"/>
  <unicode hex="0060"/>
  <outline>
    <contour>
      <point x="125" y="442" type="curve" smooth="yes"/>
      <point x="140" y="412"/>
      <point x="18" y="605"/>
      <point x="31" y="573" type="curve"/>
      <point x="-7" y="631"/>
      <point x="-87" y="555"/>
      <point x="-37" y="519" type="curve" smooth="yes"/>
      <point x="-53" y="541"/>
      <point x="116" y="387"/>
      <point x="97" y="410" type="curve"/>
      <point x="110" y="398"/>
      <point x="125" y="401"/>
      <point x="131" y="409" type="curve" smooth="yes"/>
      <point x="137" y="417"/>
      <point x="139" y="426"/>
    </contour>
  </outline>
</glyph>
<glyph name="g" format="1">
  <advance width="345"/>
  <unicode hex="0067"/>
  <outline>
    <contour>
      <point x="66" y="-328" type="curve" smooth="yes"/>
      <point x="194" y="-328"/>
      <point x="244" y="-188"/>
      <point x="278" y="-41" type="curve"/>
      <point x="347" y="4"/>
      <point x="396" y="20"/>
      <point x="445" y="47" type="curve" smooth="yes"/>
      <point x="497" y="73"/>
      <point x="457" y="123"/>
      <point x="421" y="113" type="curve" smooth="yes"/>
      <point x="403" y="115"/>
      <point x="336" y="77"/>
      <point x="292" y="39" type="curve"/>
      <point x="346" y="264" type="line"/>
      <point x="352" y="294"/>
      <point x="322" y="320"/>
      <point x="279" y="304" type="curve" smooth="yes"/>
      <point x="279" y="304"/>
      <point x="277" y="327"/>
      <point x="248" y="328" type="curve" smooth="yes"/>
      <point x="135" y="331"/>
      <point x="25" y="226"/>
      <point x="25" y="97" type="curve" smooth="yes"/>
      <point x="25" y="40"/>
      <point x="60" y="-3"/>
      <point x="126" y="-5" type="curve" smooth="yes"/>
      <point x="166" y="-6"/>
      <point x="200" y="12"/>
      <point x="219" y="35" type="curve"/>
      <point x="212" y="-5" type="line"/>
      <point x="97" y="-73"/>
      <point x="-19" y="-158"/>
      <point x="-19" y="-248" type="curve" smooth="yes"/>
      <point x="-19" y="-300"/>
      <point x="14" y="-328"/>
    </contour>
    <contour>
      <point x="150" y="72" type="curve" smooth="yes"/>
      <point x="126" y="72"/>
      <point x="121" y="91"/>
      <point x="121" y="112" type="curve" smooth="yes"/>
      <point x="121" y="160"/>
      <point x="183" y="247"/>
      <point x="260" y="253" type="curve"/>
      <point x="237" y="164" type="line"/>
      <point x="228" y="133"/>
      <point x="209" y="72"/>
    </contour>
    <contour>
      <point x="76" y="-255" type="curve" smooth="yes"/>
      <point x="64" y="-254"/>
      <point x="61" y="-245"/>
      <point x="61" y="-237" type="curve" smooth="yes"/>
      <point x="61" y="-183"/>
      <point x="111" y="-150"/>
      <point x="204" y="-79" type="curve"/>
      <point x="197" y="-124"/>
      <point x="146" y="-261"/>
    </contour>
  </outline>
</glyph>
<glyph name="s" format="1">
  <advance width="291"/>
  <unicode hex="0073"/>
  <outline>
    <contour>
      <point x="179" y="-6" type="curve" smooth="yes"/>
      <point x="299" y="-6"/>
      <point x="386" y="34"/>
      <point x="418" y="95" type="curve" smooth="yes"/>
      <point x="438" y="128"/>
      <point x="393" y="183"/>
      <point x="367" y="152" type="curve" smooth="yes"/>
      <point x="356" y="138"/>
      <point x="317" y="91"/>
      <point x="279" y="75" type="curve"/>
      <point x="325" y="152"/>
      <point x="172" y="231"/>
      <point x="194" y="266" type="curve" smooth="yes"/>
      <point x="240" y="344"/>
      <point x="141" y="368"/>
      <point x="109" y="306" type="curve" smooth="yes"/>
      <point x="133" y="352"/>
      <point x="23" y="132"/>
      <point x="-6" y="88" type="curve"/>
      <point x="26" y="31"/>
      <point x="97" y="-7"/>
    </contour>
    <contour>
      <point x="152" y="61" type="curve" smooth="yes"/>
      <point x="141" y="60"/>
      <point x="124" y="70"/>
      <point x="105" y="80" type="curve"/>
      <point x="111" y="92"/>
      <point x="104" y="82"/>
      <point x="127" y="129" type="curve" smooth="yes"/>
      <point x="161" y="199" type="line"/>
      <point x="213" y="122"/>
      <point x="221" y="58"/>
    </contour>
    <contour>
      <point x="146" y="20" type="move" name="bot"/>
    </contour>
  </outline>
</glyph>
<glyph name="v" format="1">
  <advance width="348"/>
  <unicode hex="0076"/>
  <outline>
    <contour>
      <point x="160" y="-4" type="curve" smooth="yes"/>
      <point x="241" y="35"/>
      <point x="314" y="145"/>
      <point x="350" y="289" type="curve" smooth="yes"/>
      <point x="370" y="367"/>
      <point x="226" y="358"/>
      <point x="235" y="181" type="curve"/>
      <point x="195" y="94"/>
      <point x="154" y="76"/>
      <point x="156" y="76" type="curve"/>
      <point x="164" y="76"/>
      <point x="121" y="144"/>
      <point x="153" y="292" type="curve" smooth="yes"/>
      <point x="161" y="332"/>
      <point x="83" y="357"/>
      <point x="65" y="305" type="curve" smooth="yes"/>
      <point x="1" y="92"/>
      <point x="86" y="-41"/>
    </contour>
    <contour>
      <point x="510" y="249" type="curve" smooth="yes"/>
      <point x="527" y="281"/>
      <point x="485" y="329"/>
      <point x="459" y="295" type="curve" smooth="yes"/>
      <point x="415" y="236"/>
      <point x="323" y="199"/>
      <point x="252" y="211" type="curve"/>
      <point x="245" y="148" type="line"/>
      <point x="320" y="115"/>
      <point x="473" y="185"/>
    </contour>
  </outline>
</glyph>
<glyph name="section" format="1">
  <advance width="492"/>
  <unicode hex="00A7"/>
  <outline>
    <contour>
      <point x="233" y="-42" type="curve" smooth="yes"/>
      <point x="312" y="-42"/>
      <point x="397" y="-8"/>
      <point x="397" y="72" type="curve" smooth="yes"/>
      <point x="397" y="97"/>
      <point x="391" y="117"/>
      <point x="383" y="130" type="curve"/>
      <point x="405" y="150"/>
      <point x="426" y="172"/>
      <point x="426" y="214" type="curve" smooth="yes"/>
      <point x="423" y="276"/>
      <point x="363" y="309"/>
      <point x="322" y="332" type="curve" smooth="yes"/>
      <point x="295" y="347"/>
      <point x="224" y="369"/>
      <point x="224" y="400" type="curve" smooth="yes"/>
      <point x="224" y="425"/>
      <point x="252" y="436"/>
      <point x="281" y="436" type="curve" smooth="yes"/>
      <point x="318" y="436"/>
      <point x="356" y="421"/>
      <point x="356" y="388" type="curve" smooth="yes"/>
      <point x="356" y="381"/>
      <point x="354" y="371"/>
      <point x="354" y="364" type="curve" smooth="yes"/>
      <point x="354" y="344"/>
      <point x="369" y="329"/>
      <point x="388" y="329" type="curve" smooth="yes"/>
      <point x="418" y="329"/>
      <point x="432" y="358"/>
      <point x="432" y="389" type="curve" smooth="yes"/>
      <point x="432" y="461"/>
      <point x="364" y="511"/>
      <point x="291" y="511" type="curve" smooth="yes"/>
      <point x="213" y="511"/>
      <point x="126" y="480"/>
      <point x="126" y="404" type="curve" smooth="yes"/>
      <point x="126" y="375"/>
      <point x="138" y="355"/>
      <point x="152" y="342" type="curve"/>
      <point x="127" y="325"/>
      <point x="104" y="299"/>
      <point x="104" y="262" type="curve" smooth="yes"/>
      <point x="104" y="213"/>
      <point x="141" y="193"/>
      <point x="171" y="176" type="curve" smooth="yes"/>
      <point x="211" y="151"/>
      <point x="295" y="129"/>
      <point x="295" y="73" type="curve" smooth="yes"/>
      <point x="295" y="43"/>
      <point x="268" y="31"/>
      <point x="235" y="31" type="curve" smooth="yes"/>
      <point x="195" y="31"/>
      <point x="153" y="44"/>
      <point x="153" y="82" type="curve" smooth="yes"/>
      <point x="153" y="97"/>
      <point x="161" y="111"/>
      <point x="161" y="126" type="curve" smooth="yes"/>
      <point x="161" y="145"/>
      <point x="143" y="151"/>
      <point x="126" y="151" type="curve" smooth="yes"/>
      <point x="92" y="151"/>
      <point x="71" y="115"/>
      <point x="71" y="80" type="curve" smooth="yes"/>
      <point x="71" y="-5"/>
      <point x="150" y="-42"/>
    </contour>
    <contour>
      <point x="325" y="184" type="curve"/>
      <point x="317" y="189"/>
      <point x="309" y="195"/>
      <point x="299" y="199" type="curve" smooth="yes"/>
      <point x="272" y="214"/>
      <point x="192" y="230"/>
      <point x="192" y="264" type="curve" smooth="yes"/>
      <point x="192" y="278"/>
      <point x="199" y="288"/>
      <point x="209" y="298" type="curve"/>
      <point x="224" y="290"/>
      <point x="237" y="281"/>
      <point x="253" y="275" type="curve" smooth="yes"/>
      <point x="281" y="261"/>
      <point x="335" y="241"/>
      <point x="338" y="214" type="curve" smooth="yes"/>
      <point x="338" y="201"/>
      <point x="333" y="193"/>
    </contour>
  </outline>
</glyph>
<glyph name="copyright" format="1">
  <advance width="612"/>
  <unicode hex="00A9"/>
  <outline>
    <contour>
      <point x="282" y="107" type="curve" smooth="yes"/>
      <point x="327" y="107"/>
      <point x="363" y="128"/>
      <point x="389" y="146" type="curve" smooth="yes"/>
      <point x="395" y="151"/>
      <point x="398" y="159"/>
      <point x="398" y="170" type="curve" smooth="yes"/>
      <point x="398" y="185"/>
      <point x="387" y="213"/>
      <point x="366" y="203" type="curve"/>
      <point x="347" y="191"/>
      <point x="323" y="174"/>
      <point x="295" y="174" type="curve" smooth="yes"/>
      <point x="267" y="174"/>
      <point x="255" y="199"/>
      <point x="255" y="229" type="curve" smooth="yes"/>
      <point x="255" y="274"/>
      <point x="269" y="327"/>
      <point x="309" y="327" type="curve" smooth="yes"/>
      <point x="316" y="327"/>
      <point x="310" y="307"/>
      <point x="310" y="289" type="curve" smooth="yes"/>
      <point x="310" y="272"/>
      <point x="316" y="260"/>
      <point x="336" y="260" type="curve" smooth="yes"/>
      <point x="369" y="260"/>
      <point x="384" y="291"/>
      <point x="384" y="323" type="curve" smooth="yes"/>
      <point x="384" y="369"/>
      <point x="349" y="395"/>
      <point x="303" y="395" type="curve" smooth="yes"/>
      <point x="201" y="395"/>
      <point x="172" y="301"/>
      <point x="172" y="225" type="curve" smooth="yes"/>
      <point x="172" y="164"/>
      <point x="203" y="107"/>
    </contour>
    <contour>
      <point x="285" y="74" type="curve" smooth="yes"/>
      <point x="184" y="74"/>
      <point x="109" y="124"/>
      <point x="109" y="220" type="curve" smooth="yes"/>
      <point x="109" y="341"/>
      <point x="198" y="423"/>
      <point x="322" y="423" type="curve" smooth="yes"/>
      <point x="418" y="423"/>
      <point x="478" y="375"/>
      <point x="478" y="281" type="curve" smooth="yes"/>
      <point x="478" y="165"/>
      <point x="402" y="74"/>
    </contour>
    <contour>
      <point x="282" y="12" type="curve" smooth="yes"/>
      <point x="451" y="12"/>
      <point x="550" y="125"/>
      <point x="550" y="284" type="curve" smooth="yes"/>
      <point x="550" y="413"/>
      <point x="464" y="487"/>
      <point x="333" y="487" type="curve" smooth="yes"/>
      <point x="168" y="487"/>
      <point x="38" y="389"/>
      <point x="38" y="224" type="curve" smooth="yes"/>
      <point x="38" y="86"/>
      <point x="142" y="12"/>
    </contour>
  </outline>
</glyph>
<glyph name="paragraph" format="1">
  <advance width="447"/>
  <unicode hex="00B6"/>
  <outline>
    <contour>
      <point x="239" y="9" type="curve" smooth="yes"/>
      <point x="332" y="479" type="line"/>
      <point x="316" y="478"/>
      <point x="365" y="474"/>
      <point x="385" y="490" type="curve"/>
      <point x="298" y="31" type="line"/>
      <point x="285" y="-35"/>
      <point x="393" y="-43"/>
      <point x="402" y="4" type="curve" smooth="yes"/>
      <point x="481" y="416" type="line"/>
      <point x="488" y="452"/>
      <point x="499" y="486"/>
      <point x="499" y="519" type="curve" smooth="yes"/>
      <point x="499" y="603"/>
      <point x="377" y="603"/>
      <point x="294" y="603" type="curve" smooth="yes"/>
      <point x="221" y="603"/>
      <point x="45" y="547"/>
      <point x="45" y="431" type="curve" smooth="yes"/>
      <point x="45" y="342"/>
      <point x="140" y="299"/>
      <point x="192" y="299" type="curve"/>
      <point x="136" y="19" type="line"/>
      <point x="126" y="-36"/>
      <point x="227" y="-66"/>
    </contour>
  </outline>
</glyph>
<glyph name="kgreenlandic" format="1">
  <advance width="440"/>
  <unicode hex="0138"/>
  <outline>
    <contour>
      <point x="340" y="-9" type="curve" smooth="yes"/>
      <point x="412" y="-9"/>
      <point x="489" y="63"/>
      <point x="503" y="88" type="curve" smooth="yes"/>
      <point x="524" y="118"/>
      <point x="476" y="175"/>
      <point x="455" y="132" type="curve" smooth="yes"/>
      <point x="402" y="59"/>
      <point x="371" y="69"/>
      <point x="370" y="61" type="curve" smooth="yes"/>
      <point x="330" y="55"/>
      <point x="317" y="59"/>
      <point x="322" y="81" type="curve" smooth="yes"/>
      <point x="335" y="148"/>
      <point x="438" y="153"/>
      <point x="454" y="238" type="curve" smooth="yes"/>
      <point x="463" y="285"/>
      <point x="440" y="316"/>
      <point x="393" y="318" type="curve" smooth="yes"/>
      <point x="290" y="319"/>
      <point x="185" y="201"/>
      <point x="125" y="79" type="curve"/>
      <point x="125" y="86"/>
      <point x="138" y="188"/>
      <point x="143" y="206" type="curve"/>
      <point x="324" y="329"/>
      <point x="308" y="451"/>
      <point x="228" y="468" type="curve" smooth="yes"/>
      <point x="103" y="494"/>
      <point x="34" y="217"/>
      <point x="44" y="59" type="curve" smooth="yes"/>
      <point x="44" y="69"/>
      <point x="47" y="-5"/>
      <point x="87" y="-5" type="curve" smooth="yes"/>
      <point x="197" y="-5"/>
      <point x="244" y="214"/>
      <point x="355" y="210" type="curve" smooth="yes"/>
      <point x="356" y="208"/>
      <point x="353" y="207"/>
      <point x="353" y="206" type="curve" smooth="yes"/>
      <point x="346" y="172"/>
      <point x="235" y="149"/>
      <point x="250" y="64" type="curve" smooth="yes"/>
      <point x="259" y="9"/>
      <point x="313" y="-9"/>
    </contour>
    <contour>
      <point x="152" y="283" type="curve"/>
      <point x="165" y="351"/>
      <point x="184" y="395"/>
      <point x="206" y="396" type="curve" smooth="yes"/>
      <point x="243" y="398"/>
      <point x="208" y="331"/>
    </contour>
  </outline>
</glyph>
<glyph name="eng" format="1">
  <advance width="321"/>
  <unicode hex="014B"/>
  <outline>
    <contour>
      <point x="271" y="70" type="curve"/>
      <point x="299" y="146" type="line"/>
      <point x="310" y="172"/>
      <point x="336" y="262"/>
      <point x="325" y="302" type="curve" smooth="yes"/>
      <point x="324" y="316"/>
      <point x="313" y="328"/>
      <point x="290" y="328" type="curve" smooth="yes"/>
      <point x="243" y="328"/>
      <point x="206" y="262"/>
      <point x="123" y="171" type="curve"/>
      <point x="137" y="204"/>
      <point x="149" y="253"/>
      <point x="159" y="287" type="curve" smooth="yes"/>
      <point x="166" y="311"/>
      <point x="155" y="332"/>
      <point x="130" y="332" type="curve" smooth="yes"/>
      <point x="102" y="332"/>
      <point x="84" y="313"/>
      <point x="77" y="292" type="curve" smooth="yes"/>
      <point x="57" y="227"/>
      <point x="38" y="150"/>
      <point x="38" y="81" type="curve" smooth="yes"/>
      <point x="37" y="43"/>
      <point x="34" y="0"/>
      <point x="73" y="0" type="curve" smooth="yes"/>
      <point x="92" y="0"/>
      <point x="101" y="25"/>
      <point x="124" y="59" type="curve" smooth="yes"/>
      <point x="173" y="108"/>
      <point x="185" y="157"/>
      <point x="247" y="205" type="curve"/>
      <point x="224" y="152"/>
      <point x="224" y="146"/>
      <point x="220" y="141" type="curve" smooth="yes"/>
      <point x="181" y="39" type="line"/>
      <point x="130" y="17"/>
      <point x="99" y="-3"/>
      <point x="76" y="-23" type="curve" smooth="yes"/>
      <point x="51" y="-41"/>
      <point x="34" y="-60"/>
      <point x="12" y="-78" type="curve" smooth="yes"/>
      <point x="-36" y="-136"/>
      <point x="-33" y="-184"/>
      <point x="28" y="-191" type="curve" smooth="yes"/>
      <point x="48" y="-194"/>
      <point x="79" y="-189"/>
      <point x="127" y="-154" type="curve" smooth="yes"/>
      <point x="175" y="-122"/>
      <point x="223" y="-68"/>
      <point x="259" y="17" type="curve"/>
      <point x="303" y="43"/>
      <point x="346" y="42"/>
      <point x="385" y="62" type="curve" smooth="yes"/>
      <point x="428" y="82"/>
      <point x="426" y="117"/>
      <point x="395" y="109" type="curve" smooth="yes"/>
      <point x="386" y="112"/>
      <point x="310" y="89"/>
    </contour>
    <contour>
      <point x="169" y="-28" type="curve"/>
      <point x="146" y="-56"/>
      <point x="72" y="-130"/>
      <point x="54" y="-119" type="curve" smooth="yes"/>
      <point x="57" y="-119"/>
      <point x="57" y="-123"/>
      <point x="55" y="-124" type="curve" smooth="yes"/>
      <point x="51" y="-123"/>
      <point x="68" y="-73"/>
    </contour>
  </outline>
</glyph>
<glyph name="caron" format="1">
  <advance width="295"/>
  <unicode hex="02C7"/>
  <outline>
    <contour>
      <point x="144" y="476" type="curve" smooth="yes"/>
      <point x="200" y="478"/>
      <point x="211" y="524"/>
      <point x="224" y="556" type="curve" smooth="yes"/>
      <point x="261" y="665" type="line"/>
      <point x="273" y="692"/>
      <point x="248" y="720"/>
      <point x="233" y="718" type="curve" smooth="yes"/>
      <point x="187" y="717"/>
      <point x="176" y="695"/>
      <point x="170" y="667" type="curve" smooth="yes"/>
      <point x="142" y="598"/>
      <point x="172" y="614"/>
      <point x="145" y="542" type="curve"/>
      <point x="142" y="532"/>
      <point x="134" y="719"/>
      <point x="62" y="719" type="curve" smooth="yes"/>
      <point x="24" y="719"/>
      <point x="4" y="676"/>
      <point x="15" y="662" type="curve"/>
      <point x="33" y="606"/>
      <point x="40" y="619"/>
      <point x="56" y="567" type="curve" smooth="yes"/>
      <point x="70" y="536"/>
      <point x="83" y="475"/>
    </contour>
  </outline>
</glyph>
<glyph name="breve" format="1">
  <advance width="205"/>
  <unicode hex="02D8"/>
  <outline>
    <contour>
      <point x="176" y="553" type="curve" smooth="yes"/>
      <point x="177" y="493"/>
      <point x="75" y="490"/>
      <point x="73" y="544" type="curve" smooth="yes"/>
      <point x="73" y="574"/>
      <point x="17" y="574"/>
      <point x="16" y="540" type="curve" smooth="yes"/>
      <point x="16" y="490"/>
      <point x="46" y="451"/>
      <point x="127" y="451" type="curve" smooth="yes"/>
      <point x="182" y="450"/>
      <point x="228" y="486"/>
      <point x="229" y="551" type="curve" smooth="yes"/>
      <point x="230" y="572"/>
      <point x="176" y="567"/>
    </contour>
  </outline>
</glyph>
<glyph name="uni0307" format="1">
  <advance width="205"/>
  <unicode hex="0307"/>
  <outline>
    <contour>
      <point x="114" y="459" type="curve" smooth="yes"/>
      <point x="141" y="459"/>
      <point x="167" y="484"/>
      <point x="167" y="513" type="curve" smooth="yes"/>
      <point x="167" y="536"/>
      <point x="145" y="557"/>
      <point x="119" y="557" type="curve" smooth="yes"/>
      <point x="93" y="557"/>
      <point x="67" y="532"/>
      <point x="67" y="505" type="curve" smooth="yes"/>
      <point x="67" y="480"/>
      <point x="91" y="459"/>
    </contour>
  </outline>
</glyph>
<glyph name="uni0311" format="1">
  <advance width="205"/>
  <unicode hex="0311"/>
  <outline>
    <contour>
      <point x="64" y="461" type="curve" smooth="yes"/>
      <point x="72" y="497"/>
      <point x="161" y="502"/>
      <point x="155" y="471" type="curve" smooth="yes"/>
      <point x="148" y="441"/>
      <point x="208" y="439"/>
      <point x="212" y="471" type="curve" smooth="yes"/>
      <point x="220" y="533"/>
      <point x="183" y="560"/>
      <point x="117" y="561" type="curve" smooth="yes"/>
      <point x="78" y="561"/>
      <point x="20" y="539"/>
      <point x="10" y="466" type="curve" smooth="yes"/>
      <point x="7" y="444"/>
      <point x="61" y="446"/>
    </contour>
  </outline>
</glyph>
<glyph name="uni0326" format="1">
  <advance width="205"/>
  <unicode hex="0326"/>
  <outline>
    <component base="comma" xOffset="-43" yOffset="-184"/>
    <contour>
      <point x="103" y="0" type="move" name="_bot"/>
    </contour>
  </outline>
</glyph>
<glyph name="guilsinglright" format="1">
  <advance width="456"/>
  <unicode hex="203A"/>
  <outline>
    <contour>
      <point x="187" y="365"/>
      <point x="159" y="349"/>
      <point x="149" y="315" type="curve" smooth="yes"/>
      <point x="139" y="280"/>
      <point x="163" y="269"/>
      <point x="205" y="247" type="curve" smooth="yes"/>
      <point x="359" y="165" type="line"/>
      <point x="162" y="103" type="line" smooth="yes"/>
      <point x="132" y="94"/>
      <point x="120" y="79"/>
      <point x="126" y="51" type="curve" smooth="yes"/>
      <point x="135" y="11"/>
      <point x="150" y="5"/>
      <point x="197" y="19" type="curve" smooth="yes"/>
      <point x="387" y="77" type="line" smooth="yes"/>
      <point x="424" y="88"/>
      <point x="451" y="117"/>
      <point x="451" y="172" type="curve" smooth="yes"/>
      <point x="451" y="203"/>
      <point x="438" y="228"/>
      <point x="403" y="247" type="curve" smooth="yes"/>
      <point x="229" y="342" type="line" smooth="yes"/>
    </contour>
  </outline>
</glyph>
<glyph name="fraction" format="1">
  <advance width="265"/>
  <unicode hex="2044"/>
  <outline>
    <contour>
      <point x="93" y="-29" type="curve" smooth="yes"/>
      <point x="349" y="575" type="line"/>
      <point x="368" y="619"/>
      <point x="300" y="661"/>
      <point x="274" y="601" type="curve" smooth="yes"/>
      <point x="18" y="15" type="line"/>
      <point x="-4" y="-35"/>
      <point x="76" y="-74"/>
    </contour>
  </outline>
</glyph>
<glyph name="trademark" format="1">
  <advance width="937"/>
  <unicode hex="2122"/>
  <outline>
    <contour>
      <point x="641" y="349" type="curve" smooth="yes"/>
      <point x="617" y="358"/>
      <point x="672" y="467"/>
      <point x="682" y="531" type="curve" smooth="yes"/>
      <point x="688" y="577"/>
      <point x="657" y="608"/>
      <point x="611" y="608" type="curve" smooth="yes"/>
      <point x="567" y="608"/>
      <point x="543" y="572"/>
      <point x="525" y="529" type="curve"/>
      <point x="527" y="571"/>
      <point x="505" y="614"/>
      <point x="454" y="608" type="curve" smooth="yes"/>
      <point x="411" y="603"/>
      <point x="369" y="541"/>
      <point x="337" y="473" type="curve"/>
      <point x="345" y="497"/>
      <point x="363" y="554"/>
      <point x="364" y="567" type="curve" smooth="yes"/>
      <point x="366" y="606"/>
      <point x="281" y="608"/>
      <point x="229" y="608" type="curve" smooth="yes"/>
      <point x="135" y="608"/>
      <point x="27" y="601"/>
      <point x="27" y="504" type="curve" smooth="yes"/>
      <point x="27" y="483"/>
      <point x="38" y="468"/>
      <point x="61" y="468" type="curve" smooth="yes"/>
      <point x="86" y="468"/>
      <point x="104" y="481"/>
      <point x="104" y="504" type="curve" smooth="yes"/>
      <point x="104" y="539"/>
      <point x="134" y="548"/>
      <point x="183" y="548" type="curve"/>
      <point x="119" y="353" type="line"/>
      <point x="108" y="322"/>
      <point x="117" y="303"/>
      <point x="141" y="300" type="curve" smooth="yes"/>
      <point x="168" y="298"/>
      <point x="175" y="316"/>
      <point x="181" y="341" type="curve" smooth="yes"/>
      <point x="197" y="414"/>
      <point x="216" y="467"/>
      <point x="237" y="548" type="curve"/>
      <point x="256" y="548"/>
      <point x="289" y="547"/>
      <point x="309" y="544" type="curve"/>
      <point x="309" y="544"/>
      <point x="265" y="415"/>
      <point x="248" y="340" type="curve" smooth="yes"/>
      <point x="243" y="315"/>
      <point x="272" y="297"/>
      <point x="296" y="297" type="curve" smooth="yes"/>
      <point x="316" y="297"/>
      <point x="324" y="317"/>
      <point x="330" y="332" type="curve" smooth="yes"/>
      <point x="342" y="360"/>
      <point x="354" y="393"/>
      <point x="365" y="423" type="curve" smooth="yes"/>
      <point x="390" y="487"/>
      <point x="415" y="530"/>
      <point x="439" y="537" type="curve" smooth="yes"/>
      <point x="456" y="540"/>
      <point x="461" y="524"/>
      <point x="455" y="487" type="curve" smooth="yes"/>
      <point x="447" y="445"/>
      <point x="431" y="393"/>
      <point x="417" y="339" type="curve" smooth="yes"/>
      <point x="413" y="318"/>
      <point x="430" y="297"/>
      <point x="462" y="297" type="curve" smooth="yes"/>
      <point x="480" y="297"/>
      <point x="489" y="309"/>
      <point x="494" y="325" type="curve" smooth="yes"/>
      <point x="519" y="407"/>
      <point x="537" y="539"/>
      <point x="596" y="533" type="curve" smooth="yes"/>
      <point x="610" y="531"/>
      <point x="614" y="515"/>
      <point x="613" y="508" type="curve" smooth="yes"/>
      <point x="600" y="456"/>
      <point x="582" y="400"/>
      <point x="573" y="353" type="curve" smooth="yes"/>
      <point x="566" y="320"/>
      <point x="591" y="299"/>
      <point x="625" y="293" type="curve" smooth="yes"/>
      <point x="670" y="286"/>
      <point x="711" y="320"/>
      <point x="737" y="359" type="curve" smooth="yes"/>
      <point x="764" y="402"/>
      <point x="710" y="419"/>
      <point x="695" y="396" type="curve" smooth="yes"/>
      <point x="680" y="372"/>
      <point x="660" y="343"/>
    </contour>
  </outline>
</glyph>
<glyph name="radical" format="1">
  <advance width="711.913"/>
  <unicode hex="221A"/>
  <outline>
    <contour>
      <point x="699" y="635"/>
      <point x="689" y="613"/>
      <point x="663" y="569" type="curve" smooth="yes"/>
      <point x="383" y="100" type="line"/>
      <point x="328" y="239" type="line" smooth="yes"/>
      <point x="313" y="275"/>
      <point x="311" y="298"/>
      <point x="288" y="296" type="curve"/>
      <point x="174" y="295" type="line" smooth="yes"/>
      <point x="123" y="295"/>
      <point x="116" y="219"/>
      <point x="166" y="219" type="curve" smooth="yes"/>
      <point x="241" y="219" type="line"/>
      <point x="333" y="4" type="line" smooth="yes"/>
      <point x="347" y="-29"/>
      <point x="384" y="-28"/>
      <point x="400" y="-2" type="curve" smooth="yes"/>
      <point x="729" y="539" type="line" smooth="yes"/>
      <point x="758" y="586"/>
      <point x="764" y="610"/>
      <point x="730" y="623" type="curve" smooth="yes"/>
    </contour>
  </outline>
</glyph>
